<?xml version="1.0" encoding="utf-8"?>
<!-- Generator: Adobe Illustrator 22.0.0, SVG Export Plug-In . SVG Version: 6.00 Build 0)  -->
<svg version="1.1" id="Ebene_1" xmlns="http://www.w3.org/2000/svg" xmlns:xlink="http://www.w3.org/1999/xlink" x="0px" y="0px"
	 viewBox="0 0 800 225" style="enable-background:new 0 0 800 225;" xml:space="preserve">
<style type="text/css">
	.st0{fill:#F6891E;}
	.st1{fill:#231F20;}
</style>
<title>Amazon.de-Logo_1</title>
<desc>Created with Sketch.</desc>
<g id="Page-1">
	<g id="Amazon.de-Logo_1">
		<g id="g476" transform="translate(12.000000, 8.000000)">
			<path id="path484" class="st0" d="M360,169.4c-33.7,24.9-82.5,38.1-124.5,38.1c-58.9,0-112-21.8-152.1-58
				c-3.2-2.8-0.3-6.7,3.5-4.5c43.3,25.2,96.9,40.4,152.2,40.4c37.3,0,78.3-7.7,116.1-23.8C360.8,159.1,365.6,165.2,360,169.4"/>
			<path id="path488" class="st0" d="M374.1,153.4c-4.3-5.5-28.5-2.6-39.3-1.3c-3.3,0.4-3.8-2.5-0.8-4.6
				c19.3-13.5,50.8-9.6,54.5-5.1c3.7,4.6-1,36.2-19,51.3c-2.8,2.3-5.4,1.1-4.2-2C369.3,181.6,378.4,158.9,374.1,153.4"/>
			<path id="path492" class="st1" d="M335.5,51.8V38.7c0-2,1.5-3.3,3.3-3.3h59c1.9,0,3.4,1.4,3.4,3.3V50c0,1.9-1.6,4.4-4.4,8.3
				l-30.5,43.6c11.3-0.3,23.3,1.4,33.6,7.2c2.3,1.3,2.9,3.2,3.1,5.1v14c0,1.9-2.1,4.2-4.3,3c-18.2-9.5-42.2-10.5-62.3,0.1
				c-2.1,1.1-4.2-1.1-4.2-3.1V115c0-2.1,0-5.8,2.2-9l35.4-50.8h-30.8C337,55.2,335.5,53.8,335.5,51.8"/>
			<path id="path496" class="st1" d="M120.4,134h-17.9c-1.7-0.1-3.1-1.4-3.2-3l0-92.1c0-1.8,1.6-3.3,3.5-3.3h16.7
				c1.7,0.1,3.2,1.4,3.3,3.1v12h0.3c4.4-11.6,12.6-17,23.6-17c11.2,0,18.3,5.4,23.3,17c4.3-11.6,14.2-17,24.8-17
				c7.5,0,15.7,3.1,20.8,10.1c5.7,7.7,4.5,19,4.5,28.9l0,58.1c0,1.8-1.6,3.3-3.5,3.3h-17.9c-1.8-0.1-3.2-1.5-3.2-3.3l0-48.8
				c0-3.9,0.3-13.6-0.5-17.2c-1.3-6.2-5.4-7.9-10.6-7.9c-4.4,0-8.9,2.9-10.7,7.6c-1.8,4.6-1.7,12.4-1.7,17.6v48.8
				c0,1.8-1.5,3.3-3.5,3.3h-17.9c-1.8-0.1-3.2-1.5-3.2-3.3l0-48.8c0-10.3,1.7-25.4-11.1-25.4c-12.9,0-12.4,14.7-12.4,25.4l0,48.8
				C123.9,132.5,122.3,134,120.4,134"/>
			<path id="path500" class="st1" d="M452.1,52.5c-13.2,0-14.1,18-14.1,29.3c0,11.2-0.2,35.2,13.9,35.2c13.9,0,14.6-19.4,14.6-31.2
				c0-7.7-0.3-17-2.7-24.4C461.8,55,457.8,52.5,452.1,52.5 M451.9,33.7c26.6,0,41,22.9,41,51.9c0,28.1-15.9,50.4-41,50.4
				c-26.1,0-40.3-22.9-40.3-51.3C411.6,55.9,426,33.7,451.9,33.7"/>
			<path id="path504" class="st1" d="M527.5,134h-17.9c-1.8-0.1-3.2-1.5-3.2-3.3l0-92.1c0.1-1.7,1.6-3,3.4-3h16.6
				c1.6,0.1,2.9,1.1,3.2,2.6v14.1h0.3c5-12.6,12.1-18.6,24.4-18.6c8,0,15.9,2.9,20.9,10.9c4.7,7.4,4.7,19.8,4.7,28.7v57.9
				c-0.2,1.6-1.7,2.9-3.4,2.9h-18c-1.6-0.1-3-1.3-3.2-2.9v-50c0-10.1,1.2-24.8-11.2-24.8c-4.3,0-8.4,2.9-10.4,7.4
				c-2.5,5.6-2.8,11.2-2.8,17.4v49.6C530.9,132.5,529.4,134,527.5,134"/>
			<path class="st1" d="M85.3,117.1c-3.3-4.5-6.8-8.2-6.8-16.6V72.6c0-11.8,0.8-22.7-7.9-30.9c-6.9-6.6-18.3-8.9-27-8.9
				c-17.1,0-36.1,6.4-40.1,27.5c-0.4,2.2,1.2,3.4,2.7,3.8l17.4,1.9c1.6-0.1,2.8-1.7,3.1-3.3c1.5-7.3,7.6-10.8,14.4-10.8
				c3.7,0,7.9,1.3,10.1,4.7c2.5,3.7,2.2,8.7,2.2,13v2.3C43,73,29.4,73.7,19.6,78C8.4,82.9,0.5,92.8,0.5,107.3
				c0,18.6,11.7,28,26.8,28c12.8,0,19.7-3,29.6-13c3.3,4.7,4.3,7,10.3,11.9c1.3,0.7,3.1,0.6,4.2-0.4l0,0c3.6-3.2,10.1-8.9,13.7-11.9
				C86.7,120.7,86.4,118.8,85.3,117.1z M50,109.1c-2.9,5.1-7.4,8.2-12.4,8.2c-6.9,0-10.9-5.2-10.9-13c0-15.3,13.7-18.1,26.7-18.1V90
				C53.3,97,53.5,102.9,50,109.1z"/>
			<path class="st1" d="M320.4,117.1c-3.3-4.5-6.8-8.2-6.8-16.6V72.6c0-11.8,0.8-22.7-7.9-30.9c-6.9-6.6-18.3-8.9-27-8.9
				c-17.1,0-36.1,6.4-40.1,27.5c-0.4,2.2,1.2,3.4,2.7,3.8l17.4,1.9c1.6-0.1,2.8-1.7,3.1-3.3c1.5-7.3,7.6-10.8,14.4-10.8
				c3.7,0,7.9,1.3,10.1,4.7c2.5,3.7,2.2,8.7,2.2,13v2.3c-10.4,1.2-24,1.9-33.7,6.2c-11.2,4.9-19.1,14.8-19.1,29.3
				c0,18.6,11.7,28,26.9,28c12.8,0,19.7-3,29.6-13c3.3,4.7,4.3,7,10.3,11.9c1.3,0.7,3.1,0.6,4.2-0.4l0,0c3.6-3.2,10.1-8.9,13.8-11.9
				C321.8,120.7,321.6,118.8,320.4,117.1z M285.1,109.1c-2.9,5.1-7.4,8.2-12.4,8.2c-6.9,0-10.9-5.2-10.9-13
				c0-15.3,13.7-18.1,26.7-18.1V90C288.5,97,288.7,102.9,285.1,109.1z"/>
			<path id="path516" class="st1" d="M591.3,126.7c0-4.6,4-8.4,8.8-8.4c4.9,0,8.8,3.8,8.8,8.4c0,4.6-4,8.4-8.8,8.4
				C595.2,135.1,591.3,131.3,591.3,126.7 M714.1,74.6h45.1c0.2-16-7.4-29.7-22-30.1C723.5,44.9,714.6,59.3,714.1,74.6 M671.8,91.3
				V75.6c0-6.8-0.8-13.8-4.3-19.7c-4-6.7-11.2-10.8-18.2-11.1c-7.1,0.3-13,5.5-16.5,12.4c-3.8,7.8-5,16.7-5,25.7
				c0,15.9,3.6,39.8,21.1,40.5c7.2-0.3,13.8-5.1,18-11.8C670.8,105.1,671.8,98.7,671.8,91.3 M737.3,32.8c26.5,0,37.8,23.9,37.9,50.2
				c0,1.5-1.6,2.8-3,2.8l-58.7,0c0,7.8,0.3,15,3.5,22.4c3.9,9.1,12.4,14.7,21,15c9.8-0.3,17.1-6.5,21-16.3c0.6-1.5,2.4-2.4,3.9-2.1
				l7.9,1.6c1.7,0.4,2.7,2,2.3,3.4c-5.6,16.4-18.7,26.2-36.1,26.2c-26.7,0-39.7-23.7-39.7-51.4C697.2,57.5,711.1,32.8,737.3,32.8
				 M683.3,134.1h-7.2c-1.5,0-3.1-1.3-3.1-2.8v-12.1c-5.4,10.8-13.5,16.9-26.1,16.9c-12.5,0-20.5-6.2-26.7-16.7
				c-5.9-10.1-8-22.6-8-34.6c0-24.7,9.9-51.9,35.9-51.9c11.3,0,18.1,5.1,23.8,13.5V3.5c0-1.5,1.6-2.9,3.1-2.9h8.4
				c1.5,0,3.1,1.3,3.1,2.9v127.8C686.4,132.8,684.9,134.1,683.3,134.1"/>
		</g>
	</g>
</g>
</svg>
